:SAMPLES-PER-SECOND 30
:FRAME-RANGE 1-2045
:FULLY-SPECIFIED
:DEGREES
576
root  25.4856 36.7505 35.2709 9.72469 30.2969 -3.64587
RightUpLeg  -34.6785 -19.4319 2.88297
RightLeg  40.7007 -2.37003 -2.48143
RightFoot  -17.4744 0.526261 12.0038
RightToes  5.82063e-011 0 -3.6325e-017
Spine  20.5081 -3.87827 -0.565003
Spine1  2.39539 -4.62342 4.36251
HEad  -9.90482 20.4373 -8.5558
LeftShoulder1  2.00628 -4.42674 -18.7595
LeftArm  10.5699 -25.6221 -54.4312
LeftForeArm  -8.97516 -56.9071 -18.28
LeftHand  -0.2681 6.95941 -15.3948
RightShoulder  3.70025 6.87786 29.721
RightArm  -17.6113 -0.455453 7.1753
RightForeArm  -23.4933 65.8407 28.9906
RightHand  0.597633 -2.52596 24.9375
LeftUpLeg  -6.2191 16.7486 23.3034
LeftLeg  42.7147 1.51511 1.88478
LeftFoot  2.08885 1.96507 -16.6984
LeftToes  -3.90176e-010 -2.48536e-010 1.05482e-011
577
root  26.0307 36.9115 36.1209 10.0332 26.6899 -3.96532
RightUpLeg  -32.932 -16.3947 2.39388
RightLeg  39.4141 -2.02274 -2.07655
RightFoot  -18.0102 0.597295 12.3131
RightToes  5.82063e-011 0 -3.6325e-017
Spine  20.9065 -3.86767 0.738818
Spine1  2.54662 -4.42187 4.5411
HEad  -9.97122 20.1001 -8.67192
LeftShoulder1  2.0122 -4.3499 -19.1069
LeftArm  10.1508 -23.9429 -51.8584
LeftForeArm  -9.42925 -57.6735 -18.9003
LeftHand  -0.356506 7.55781 -15.568
RightShoulder  3.98981 7.34825 30.8609
RightArm  -15.5609 -0.485026 7.72615
RightForeArm  -23.9502 65.5358 28.5608
RightHand  0.536084 -2.73274 24.3132
LeftUpLeg  -11.6254 17.3748 21.018
LeftLeg  52.3562 -0.756716 -0.598135
LeftFoot  0.601652 1.68426 -16.0497
LeftToes  -3.90176e-010 -2.48536e-010 1.05482e-011
578
root  26.6436 37.2532 37.1347 11.3381 24.267 -3.1312
RightUpLeg  -30.8416 -15.2043 0.999339
RightLeg  36.9241 -1.25067 -1.293
RightFoot  -18.3082 0.656444 12.7838
RightToes  5.82063e-011 0 -3.6325e-017
Spine  20.0862 -3.84469 0.81922
Spine1  2.94477 -4.62511 4.72226
HEad  -9.80496 19.2592 -8.45606
LeftShoulder1  1.98451 -4.18859 -19.297
LeftArm  10.1371 -22.1723 -49.613
LeftForeArm  -9.72846 -58.344 -19.4604
LeftHand  -0.433667 8.12328 -15.4119
RightShoulder  4.21997 7.71528 31.7166
RightArm  -13.3226 -1.10209 8.66589
RightForeArm  -24.1519 65.3317 28.2729
RightHand  0.501478 -2.85182 23.9427
LeftUpLeg  -18.2184 18.1579 17.0256
LeftLeg  57.5203 0.435042 1.2565
LeftFoot  -0.478685 1.42697 -14.9099
LeftToes  -3.90176e-010 -2.48536e-010 1.05482e-011
579
root  27.3024 37.6892 38.2895 13.0399 22.4479 -1.53548
RightUpLeg  -28.3152 -15.4311 -1.04037
RightLeg  33.6131 -0.103697 -0.343893
RightFoot  -18.2911 0.660779 12.8839
RightToes  5.82063e-011 0 -3.6325e-017
Spine  18.1685 -3.5539 0.250867
Spine1  3.70127 -4.70882 4.65823
HEad  -9.4863 17.4524 -8.25615
LeftShoulder1  1.9769 -4.07716 -19.5961
LeftArm  10.5059 -20.7248 -47.6702
LeftForeArm  -10.4315 -58.4903 -19.6383
LeftHand  -0.487298 8.44932 -15.6662
RightShoulder  4.20522 7.27792 33.1141
RightArm  -10.6138 -1.35472 8.58335
RightForeArm  -24.5345 65.2203 28.1373
RightHand  0.461586 -3.0016 23.5954
LeftUpLeg  -24.8294 18.6164 12.0017
LeftLeg  57.9637 2.12692 4.19168
LeftFoot  -1.93983 1.16229 -13.9389
LeftToes  -3.90176e-010 -2.48536e-010 1.05482e-011
580
root  27.9693 38.068 39.5324 14.2676 20.5849 -0.0402222
RightUpLeg  -25.2063 -15.3304 -3.28115
RightLeg  30.1738 0.917102 0.320104
RightFoot  -18.3153 0.673487 13.0485
RightToes  5.82063e-011 0 -3.6325e-017
Spine  16.49 -2.97833 -0.397427
Spine1  3.97145 -4.3824 4.22076
HEad  -8.46491 14.8855 -7.46396
LeftShoulder1  1.96016 -3.88935 -20.0629
LeftArm  11.0375 -19.2047 -45.6504
LeftForeArm  -10.8424 -58.6493 -19.8041
LeftHand  -0.518434 8.57046 -16.1257
RightShoulder  4.09821 6.9151 33.4472
RightArm  -8.35958 -3.18144 10.1023
RightForeArm  -23.2343 65.6843 28.7327
RightHand  0.469512 -2.93232 23.2717
LeftUpLeg  -30.3389 18.9908 7.35401
LeftLeg  54.5107 3.37315 5.55235
LeftFoot  -2.93824 1.04498 -13.9303
LeftToes  -3.90176e-010 -2.48536e-010 1.05482e-011
581
root  28.6362 38.367 40.8369 14.8248 18.6953 1.19502
RightUpLeg  -21.4853 -15.247 -5.52009
RightLeg  26.7333 2.0126 0.858497
RightFoot  -18.3403 0.6954 13.3592
RightToes  5.82063e-011 0 -3.6325e-017
Spine  15.3781 -2.31545 -1.37389
Spine1  3.71395 -3.90036 3.70214
HEad  -7.42796 11.9363 -6.31848
LeftShoulder1  1.89885 -3.61777 -20.2222
LeftArm  10.7939 -16.9936 -43.8627
LeftForeArm  -10.3935 -59.0499 -20.107
LeftHand  -0.53299 8.59273 -16.502
RightShoulder  4.02441 6.61449 33.8867
RightArm  -6.05241 -4.81631 11.258
RightForeArm  -21.6606 66.3458 29.6497
RightHand  0.443257 -3.00839 22.7831
LeftUpLeg  -34.1473 18.8012 3.65289
LeftLeg  47.6853 3.90486 4.99762
LeftFoot  -3.47392 0.977422 -13.8578
LeftToes  -3.90176e-010 -2.48536e-010 1.05482e-011
582
root  29.3111 38.586 42.1651 14.8734 16.6423 2.0024
RightUpLeg  -17.3251 -13.8573 -7.74336
RightLeg  23.0553 2.27611 1.02526
RightFoot  -18.2457 0.721482 13.9579
RightToes  5.82063e-011 0 -3.6325e-017
Spine  14.6153 -1.64674 -2.28272
Spine1  3.32432 -3.18405 2.69462
HEad  -6.57526 8.74741 -4.70969
LeftShoulder1  1.81732 -3.32995 -20.1455
LeftArm  9.59809 -14.2239 -42.4334
LeftForeArm  -9.51087 -59.7737 -20.67
LeftHand  -0.543022 8.61475 -16.724
RightShoulder  4.01091 6.39601 34.6234
RightArm  -3.79409 -5.93579 12.0263
RightForeArm  -20.1319 67.0241 30.6633
RightHand  0.421958 -3.08543 22.5174
LeftUpLeg  -36.1425 18.3261 1.2465
LeftLeg  37.9679 3.6745 3.43371
LeftFoot  -3.47388 1.01277 -14.365
LeftToes  -3.90176e-010 -2.48536e-010 1.05482e-011
583
root  30.0104 38.6851 43.4862 14.4391 14.3274 2.21526
RightUpLeg  -13.0528 -11.5001 -9.39331
RightLeg  19.3639 1.75908 0.642115
RightFoot  -18.1924 0.779244 15.0117
RightToes  5.82063e-011 0 -3.6325e-017
Spine  14.3428 -0.969594 -3.11762
Spine1  2.81092 -2.35989 1.73778
HEad  -5.97592 5.34682 -2.85793
LeftShoulder1  1.74497 -3.00636 -20.3688
LeftArm  7.91489 -11.1748 -40.5069
LeftForeArm  -8.13246 -61.1938 -21.8967
LeftHand  -0.542052 8.5821 -16.8603
RightShoulder  4.15366 6.60473 35.19
RightArm  -1.88259 -6.68286 12.7913
RightForeArm  -18.8445 67.4999 31.4007
RightHand  0.433243 -2.97462 21.9736
LeftUpLeg  -36.3945 17.6125 0.399497
LeftLeg  26.2427 2.19583 1.50872
LeftFoot  -2.66309 1.15226 -14.9072
LeftToes  -3.90176e-010 -2.48536e-010 1.05482e-011
584
root  30.7808 38.5691 44.8356 13.2063 11.5625 1.7054
RightUpLeg  -8.74343 -9.08183 -10.2986
RightLeg  16.667 1.55472 -0.0132263
RightFoot  -18.7809 0.924994 16.1012
RightToes  5.82063e-011 0 -3.6325e-017
Spine  14.4543 -0.230075 -3.41748
Spine1  2.54811 -1.35188 0.76403
HEad  -5.37218 1.93954 -0.818396
LeftShoulder1  1.67271 -2.67543 -20.6509
LeftArm  6.08714 -8.36892 -38.7233
LeftForeArm  -6.76739 -62.3847 -23.0146
LeftHand  -0.544209 8.52166 -17.2545
RightShoulder  4.46849 7.12243 36.1293
RightArm  -0.427998 -6.74263 13.0567
RightForeArm  -17.8748 67.726 31.7328
RightHand  0.434789 -2.93578 21.6818
LeftUpLeg  -34.9174 16.3553 1.63403
LeftLeg  15.0535 -0.0907701 0.169318
LeftFoot  -0.330255 1.53437 -15.8157
LeftToes  -3.90176e-010 -2.48536e-010 1.05482e-011
585
root  31.6345 38.2042 46.2419 10.9141 8.1777 0.574997
RightUpLeg  -4.3997 -6.31167 -10.779
RightLeg  15.9258 -0.257064 -0.950698
RightFoot  -20.1696 1.26578 18.0444
RightToes  5.82063e-011 0 -3.6325e-017
Spine  15.1338 0.535368 -3.11249
Spine1  2.39973 -0.155319 -0.436621
HEad  -3.9334 -1.45941 1.72241
LeftShoulder1  1.62361 -2.44038 -20.9102
LeftArm  4.44632 -5.63063 -37.2323
LeftForeArm  -5.85875 -63.2391 -23.8937
LeftHand  -0.541189 8.52368 -17.1406
RightShoulder  5.02458 8.16624 37.1005
RightArm  0.410212 -6.64623 13.1492
RightForeArm  -17.1609 67.6246 31.4803
RightHand  0.452549 -2.80876 21.3566
LeftUpLeg  -32.1989 13.1773 6.46396
LeftLeg  8.83791 1.65533 -1.86062
LeftFoot  2.90992 2.33723 -18.6949
LeftToes  -3.90176e-010 -2.48536e-010 1.05482e-011
586
root  32.5219 37.6186 47.6363 7.44856 4.41785 -0.795395
RightUpLeg  -0.157758 -3.21935 -11.2137
RightLeg  17.9788 -4.80104 -2.00861
RightFoot  -21.9123 1.75619 20.4036
RightToes  5.82063e-011 0 -3.6325e-017
Spine  17.4906 1.16937 -2.59652
Spine1  1.48688 1.01389 -1.98037
HEad  -1.44876 -4.79043 3.84531
LeftShoulder1  1.58092 -2.27658 -20.9469
LeftArm  3.37548 -2.87628 -36.111
LeftForeArm  -5.5217 -64.0646 -24.8633
LeftHand  -0.585756 8.81882 -17.0766
RightShoulder  5.56021 9.20681 37.7607
RightArm  1.05189 -6.28457 12.9822
RightForeArm  -17.2832 67.5779 31.4053
RightHand  0.385659 -3.13117 21.1407
LeftUpLeg  -31.6786 20.4907 5.15469
LeftLeg  14.0259 -8.49923 -3.69582
LeftFoot  11.2123 2.14851 -11.0936
LeftToes  -3.90176e-010 -2.48536e-010 1.05482e-011
